<svg data-v-423bf9ae="" xmlns="http://www.w3.org/2000/svg" viewBox="0 0 326 90" class="iconLeft"><!----><!----><!----><g data-v-423bf9ae="" id="0a3b7911-bc58-413b-97ae-8ad0a4928391" fill="white" transform="matrix(4.569687698175228,0,0,4.569687698175228,74.64564834622561,12.897942160393157)"><path d="M5.54 9.56C3.15 9.56 2.52 7.43 2.52 5.53C2.52 2.88 3.60 1.64 5.54 1.64C6.01 1.64 6.71 1.72 7.21 1.86L7.85 3.70L8.86 3.54L8.86 1.36C7.81 0.76 6.79 0.46 5.54 0.46C2.13 0.46 0.42 3.02 0.42 5.60C0.42 8.05 1.75 10.49 5.01 10.71L5.01 11.72L5.43 11.72C5.70 11.72 5.84 11.91 5.84 12.15C5.84 12.53 5.42 12.81 4.69 12.81L4.97 13.59C5.81 13.59 7.03 13.22 7.03 12.08C7.03 11.34 6.34 11.07 5.88 11.05L5.88 10.72C6.94 10.67 8.15 10.33 8.86 9.83L8.86 7.56L7.87 7.42L7.15 9.37C6.69 9.49 5.95 9.56 5.54 9.56ZM10.04 5.74L10.98 5.91L11.28 4.84C11.55 4.77 11.98 4.69 12.32 4.69C12.94 4.69 13.51 5.08 13.51 5.88L13.51 6.37C11.75 6.37 9.52 6.80 9.52 8.71C9.52 9.98 10.63 10.65 11.89 10.65C12.70 10.65 13.27 10.47 13.69 10.18L14.11 10.50L15.89 10.50L16.06 9.65L15.27 9.34L15.27 6.44C15.27 4.75 14.20 3.81 12.39 3.81C11.69 3.81 10.85 3.99 10.04 4.40ZM13.51 9.07C13.27 9.42 12.78 9.63 12.40 9.63C12.01 9.63 11.44 9.38 11.44 8.58C11.44 7.78 12.21 7.24 13.51 7.24ZM22.41 5.74L22.41 4.12C21.88 3.91 21.41 3.81 20.97 3.81C20.33 3.81 19.60 4.02 19.17 4.17L18.59 3.81L16.77 3.96L16.94 4.82L17.57 4.82L17.57 9.34L16.69 9.65L16.86 10.50L20.33 10.50L20.50 9.65L19.33 9.34L19.33 5.10C19.74 4.94 20.31 4.82 20.59 4.82C20.79 4.82 21.06 4.84 21.15 4.87L21.48 5.91ZM25.07 6.38C25.20 5.38 25.79 4.69 26.70 4.69C27.43 4.69 27.99 5.15 27.99 5.98C27.99 6.10 27.97 6.24 27.94 6.38ZM27.01 9.63C25.80 9.63 25.06 8.65 25.03 7.25L29.44 7.25C29.61 6.96 29.75 6.45 29.75 6.08C29.75 4.70 28.38 3.81 26.70 3.81C24.70 3.81 23.11 5.08 23.11 7.22C23.11 9.30 24.28 10.65 26.94 10.65C27.86 10.65 28.74 10.43 29.64 9.70L29.16 8.99C28.45 9.46 27.72 9.63 27.01 9.63ZM38.39 0.70L35.17 9.06L33.95 9.51L34.10 10.50L37.60 10.50L37.74 9.49L36.43 9.06L37.10 7.38L40.38 7.38L41.01 9.06L39.90 9.51L40.05 10.50L44.13 10.50L44.28 9.51L43.05 9.06L39.91 0.46ZM39.97 6.29L37.52 6.29L39.09 2.31L39.09 3.91ZM46.87 13.59C47.71 13.59 48.93 13.22 48.93 12.08C48.93 11.34 48.24 11.07 47.78 11.05L47.78 10.63C49.24 10.50 50.16 9.74 50.16 8.61C50.16 7.53 49.38 7.08 48.41 6.62C47.71 6.29 46.59 5.96 46.59 5.42C46.59 5.00 47.05 4.69 47.61 4.69C47.95 4.69 48.33 4.75 48.66 4.83L48.96 5.91L49.91 5.74L49.91 4.40C49.31 4.03 48.52 3.81 47.75 3.81C46.07 3.81 44.98 4.44 44.98 5.63C44.98 6.85 46.24 7.43 47.17 7.87C47.80 8.16 48.55 8.55 48.55 9.00C48.55 9.52 47.95 9.76 47.26 9.76C47.08 9.76 46.59 9.70 46.37 9.62L45.89 8.23L44.95 8.41L44.95 10.07C45.57 10.37 46.31 10.54 46.91 10.61L46.91 11.72L47.33 11.72C47.60 11.72 47.74 11.91 47.74 12.15C47.74 12.53 47.32 12.81 46.59 12.81ZM53.94 9.34L53.94 3.96L53.09 3.81L51.38 3.96L51.53 4.82L52.18 4.82L52.18 9.34L51.28 9.63L51.45 10.50L54.67 10.50L54.84 9.63Z"></path></g><!----><g data-v-423bf9ae="" id="c8ae4a1c-da12-4a41-8ab4-867f8c955027" transform="matrix(1.7854308504781427,0,0,1.7854308504781427,-13.679795755085351,1.0062834471022697)" stroke="none" fill="white"><path d="M38.008 29.566h-1.799v-3.127l1.799.374zM37.558 8.716V-.008h-.899v8.724h-1.363V19.29l3.623 1.295V8.716z"></path><g><path d="M39.369 31.143a2.046 2.046 0 0 0-2.875-.298l-.38.309c-3.423 2.786-4.609 3.647-6.774 3.305-2.415-.386-4.303-2.335-4.585-4.737-.191-1.64.246-3.2 1.235-4.395.066-.081.148-.142.22-.219l5.72 3.601a1.705 1.705 0 0 0 2.353-.536 1.707 1.707 0 0 0-.536-2.354l-3.616-2.277c1.339.269 4.278 1.218 6.687 2.116a2.045 2.045 0 0 0 1.428-3.831c-1.498-.558-6.581-1.991-9.943-2.921l-6.469 5.318a.714.714 0 0 1-1.012-.098.717.717 0 0 1 .098-1.011l5.689-4.678-1.41-.384c-.899-.338-1.863.096-2.202.353l-7.2 5.49c-.599.411-.975 1.048-.962 1.834v11.794L8.145 50.4h12.333l18.593-16.38c.877-.713 1.009-2 .298-2.877z"></path></g></g><!----></svg>