<?xml version="1.0" encoding="iso-8859-1"?>
<!-- Generator: Adobe Illustrator 19.0.0, SVG Export Plug-In . SVG Version: 6.00 Build 0)  -->
<svg version="1.1" id="Capa_1" xmlns="http://www.w3.org/2000/svg" xmlns:xlink="http://www.w3.org/1999/xlink" x="0px" y="0px"
	 viewBox="0 0 510.406 510.406" style="enable-background:new 0 0 510.406 510.406;" xml:space="preserve">
<g>
	<g>
		<g>
			<path fill="#5900ff" d="M179.475,56.15l-18.672-26.032c-9.629,6.905-18.461,14.858-26.336,23.712l23.904,21.28
				C164.68,68.026,171.758,61.667,179.475,56.15z"/>
			<path fill="#5900ff" d="M415.203,269.334V156.806c-0.993-87.435-72.563-157.573-160-156.8c-21.787-0.043-43.359,4.31-63.424,12.8l12.48,29.472
				c16.115-6.823,33.444-10.317,50.944-10.272c69.772-0.792,127.025,55.03,128,124.8v112.512c0,32-34.896,70.656-95.712,106
				c-20.035,11.328-44.541,11.328-64.576,0c-60.816-35.328-95.712-73.968-95.712-105.984V156.806c0-1.488,0-2.992,0.08-4.48
				l-32-1.184c-0.053,1.899-0.08,3.787-0.08,5.664v112.512c0,39.392,29.152,74.144,64,101.632v83.2l-55.152,27.536l14.304,28.64
				l72.848-36.432v-80.416c5.264,3.328,10.512,6.544,15.648,9.6c29.904,17.334,66.8,17.334,96.704,0
				c5.136-2.992,10.384-6.192,15.648-9.6v80.432l72.848,36.496l14.304-28.64l-55.152-27.648v-83.2
				C386.051,343.478,415.203,308.806,415.203,269.334z"/>
			<path fill="#5900ff" d="M142.099,98.278l-28.096-15.312c-5.699,10.458-10.172,21.54-13.328,33.024l30.864,8.464
				C134.031,115.349,137.575,106.564,142.099,98.278z"/>
			<polygon fill="#5900ff" points="202.515,283.318 255.203,230.63 307.891,283.318 330.515,260.694 277.827,208.006 330.515,155.318 
				307.891,132.694 255.203,185.382 202.515,132.694 179.891,155.318 232.579,208.006 179.891,260.694 			"/>
		</g>
	</g>
</g>
<g>
</g>
<g>
</g>
<g>
</g>
<g>
</g>
<g>
</g>
<g>
</g>
<g>
</g>
<g>
</g>
<g>
</g>
<g>
</g>
<g>
</g>
<g>
</g>
<g>
</g>
<g>
</g>
<g>
</g>
</svg>
