<svg height="512pt" viewBox="0 -41 512 512" width="512pt" xmlns="http://www.w3.org/2000/svg"><path fill="#5900ff" d="m480.601562 0h-449.203124c-17.3125 0-31.398438 14.085938-31.398438 31.398438v301.582031c0 17.316406 14.085938 31.402343 31.398438 31.402343h141.527343c3.347657 0 6.492188 1.300782 8.859375 3.667969l54.679688 54.679688c5.386718 5.382812 12.460937 8.078125 19.535156 8.078125 7.078125 0 14.152344-2.695313 19.539062-8.078125l54.679688-54.679688c2.367188-2.367187 5.511719-3.667969 8.855469-3.667969h96.160156c4.171875 0 7.550781-3.382812 7.550781-7.554687s-3.378906-7.550781-7.550781-7.550781h-96.160156c-7.378907 0-14.320313 2.875-19.539063 8.09375l-54.675781 54.675781c-4.882813 4.882813-12.832031 4.882813-17.714844 0l-54.679687-54.675781c-5.21875-5.21875-12.15625-8.09375-19.539063-8.09375h-141.527343c-8.984376 0-16.292969-7.308594-16.292969-16.296875v-301.582031c0-8.984376 7.308593-16.292969 16.292969-16.292969h449.203124c8.984376 0 16.296876 7.308593 16.296876 16.292969v301.582031c0 8.988281-7.3125 16.296875-16.296876 16.296875h-13.816406c-4.171875 0-7.554687 3.378906-7.554687 7.550781s3.382812 7.554687 7.554687 7.554687h13.816406c17.3125 0 31.398438-14.085937 31.398438-31.402343v-301.582031c0-17.3125-14.085938-31.398438-31.398438-31.398438zm0 0"/><path fill="#5900ff" d="m47.796875 103.90625c-4.167969 0-7.550781 3.378906-7.550781 7.550781v200.898438c0 6.800781 5.535156 12.335937 12.335937 12.335937h127.230469c10.304688 0 19.988281 4.011719 27.269531 11.292969l40.195313 40.195313c2.332031 2.328124 5.429687 3.613281 8.722656 3.613281 3.296875 0 6.394531-1.28125 8.722656-3.613281l40.191406-40.191407c7.285157-7.285156 16.972657-11.296875 27.273438-11.296875h126.226562c6.800782 0 12.335938-5.535156 12.335938-12.335937v-261.386719c0-6.804688-5.535156-12.335938-12.335938-12.335938h-405.832031c-6.800781 0-12.335937 5.53125-12.335937 12.335938v26.199219c0 4.171875 3.382812 7.550781 7.550781 7.550781 4.171875 0 7.554687-3.378906 7.554687-7.550781v-23.433594h400.292969v255.851563h-123.457031c-14.339844 0-27.816406 5.585937-37.953125 15.722656l-38.234375 38.234375-38.238281-38.238281c-10.132813-10.136719-23.613281-15.71875-37.949219-15.71875h-124.460938v-198.128907c0-4.171875-3.382812-7.550781-7.554687-7.550781zm0 0"/><path fill="#5900ff" d="m221.140625 269.289062c8.070313 0 15.65625-3.140624 21.363281-8.847656l104.964844-104.96875c11.773438-11.777344 11.773438-30.941406 0-42.71875-11.777344-11.777344-30.945312-11.777344-42.722656 0l-83.605469 83.605469-26.726563-26.722656c-11.777343-11.777344-30.941406-11.777344-42.71875 0-11.777343 11.777343-11.777343 30.941406 0 42.722656l48.082032 48.082031c5.707031 5.707032 13.292968 8.847656 21.363281 8.847656zm-58.765625-88.972656c2.855469-2.851562 6.644531-4.425781 10.679688-4.425781 4.035156 0 7.828124 1.574219 10.679687 4.425781l32.066406 32.066406c1.417969 1.414063 3.335938 2.210938 5.339844 2.210938s3.921875-.796875 5.339844-2.210938l88.945312-88.949218c2.851563-2.855469 6.644531-4.421875 10.679688-4.421875 4.035156 0 7.828125 1.566406 10.679687 4.421875 5.890625 5.886718 5.890625 15.472656 0 21.359375l-104.964844 104.96875c-2.851562 2.851562-6.644531 4.425781-10.679687 4.425781s-7.828125-1.574219-10.679687-4.425781l-48.085938-48.082031c-5.886719-5.890626-5.886719-15.476563 0-21.363282zm0 0"/></svg>
